<mxfile host="app.diagrams.net" modified="2023-06-27T05:04:42.179Z" agent="Mozilla/5.0 (Windows NT 10.0; Win64; x64) AppleWebKit/537.36 (KHTML, like Gecko) Chrome/114.0.0.0 Safari/537.36 Edg/114.0.1823.58" version="21.5.0" etag="oVNEpnMw6A43Cc9DJdB9" type="github">
  <diagram name="Page-1" id="YsNpJqHPjjQ2-Fzly5HY">
    <mxGraphModel>
      <root>
        <mxCell id="0" />
        <mxCell id="1" parent="0" />
      </root>
    </mxGraphModel>
  </diagram>
</mxfile>
